<svg xmlns="http://www.w3.org/2000/svg" version="1.1" xmlns:xlink="http://www.w3.org/1999/xlink" width="512" height="512" x="0" y="0" viewBox="0 0 24 24" style="enable-background:new 0 0 512 512" xml:space="preserve" class=""><g><path d="M12 3c4.96 0 9 4.04 9 9s-4.04 9-9 9-9-4.04-9-9 4.04-9 9-9m0-1C6.48 2 2 6.48 2 12s4.48 10 10 10 10-4.48 10-10S17.52 2 12 2z" fill="#ffffff" opacity="1" data-original="#ffffff"></path><path d="M15.5 12.5c-1.1 0-2-.9-2-2s.9-2 2-2 2 .9 2 2-.9 2-2 2zm0-3c-.55 0-1 .45-1 1s.45 1 1 1 1-.45 1-1-.45-1-1-1zM8.5 12.5c-1.1 0-2-.9-2-2s.9-2 2-2 2 .9 2 2-.9 2-2 2zm0-3c-.55 0-1 .45-1 1s.45 1 1 1 1-.45 1-1-.45-1-1-1zM17 7.61a5.122 5.122 0 0 1-3.33-1.23c-.21-.18-.24-.49-.06-.7s.5-.23.7-.06c.36.31.96.71 1.78.89.74.17 1.38.09 1.78 0a.503.503 0 0 1 .22.98c-.36.08-.74.12-1.11.12zM7 7.61c-.37 0-.75-.04-1.11-.12a.503.503 0 0 1 .22-.98c.41.09 1.05.17 1.78 0a4.08 4.08 0 0 0 1.78-.89c.21-.18.53-.16.7.06.18.21.15.53-.06.7-.64.54-1.4.93-2.22 1.11-.36.08-.74.12-1.11.12zM9.56 18.06c-.45 0-.9-.15-1.26-.44a2.056 2.056 0 0 1 0-3.24c.5-.39 1.15-.53 1.77-.38l1.68.42c.17.04.35.04.51 0l1.68-.42c.62-.15 1.26-.02 1.77.38a2.056 2.056 0 0 1 0 3.24c-.5.39-1.15.53-1.77.38l-1.68-.42c-.17-.04-.35-.04-.51 0l-1.68.42a2.2 2.2 0 0 1-.5.06zm0-3.12c-.23 0-.46.08-.65.22-.26.2-.41.51-.41.84s.15.63.41.84c.26.2.59.28.91.19l1.68-.42c.33-.08.67-.08 1 0l1.68.42c.32.08.65 0 .91-.19.26-.2.41-.51.41-.84s-.15-.63-.41-.84c-.26-.2-.59-.28-.91-.19l-1.68.42c-.33.08-.67.08-1 0l-1.68-.42c-.09-.02-.17-.03-.26-.03z" fill="#ffffff" opacity="1" data-original="#ffffff"></path></g></svg>