<svg xmlns="http://www.w3.org/2000/svg" version="1.1" xmlns:xlink="http://www.w3.org/1999/xlink" width="512" height="512" x="0" y="0" viewBox="0 0 24 24" style="enable-background:new 0 0 512 512" xml:space="preserve" class=""><g><path d="M12 14a9.454 9.454 0 0 1 5.666 2.254l-1.33 1.494A7.508 7.508 0 0 0 12 16a7.508 7.508 0 0 0-4.336 1.748l-1.33-1.494A9.454 9.454 0 0 1 12 14Zm12-2A12 12 0 1 1 12 0a12.013 12.013 0 0 1 12 12Zm-2 0a10 10 0 1 0-10 10 10.011 10.011 0 0 0 10-10Zm-8-1.539v.039a1.5 1.5 0 1 0 2.53-1.09A2.31 2.31 0 0 1 18 9V7c-3.281 0-4 2.5-4 3.461ZM7 10.5a1.5 1.5 0 0 0 3 0v-.039C10 9.5 9.281 7 6 7v2a2.315 2.315 0 0 1 1.472.409A1.491 1.491 0 0 0 7 10.5Z" fill="#ffffff" opacity="1" data-original="#ffffff" class=""></path></g></svg>
