<svg xmlns="http://www.w3.org/2000/svg" version="1.1" xmlns:xlink="http://www.w3.org/1999/xlink" width="512" height="512" x="0" y="0" viewBox="0 0 24 24" style="enable-background:new 0 0 512 512" xml:space="preserve" class=""><g><g fill="#000" fill-rule="evenodd" clip-rule="evenodd"><path d="M1.25 12C1.25 6.063 6.063 1.25 12 1.25S22.75 6.063 22.75 12 17.937 22.75 12 22.75 1.25 17.937 1.25 12zM12 2.75a9.25 9.25 0 1 0 0 18.5 9.25 9.25 0 0 0 0-18.5z" fill="#ffffff" opacity="1" data-original="#ffffff"></path><path d="M9.168 15.16a.75.75 0 0 0-1.339.675l.67-.335-.67.335v.002l.002.001.002.004.004.01.015.028.05.087c.041.07.102.167.181.279.159.224.4.52.731.815.67.595 1.716 1.189 3.186 1.189s2.515-.594 3.186-1.19a4.85 4.85 0 0 0 .912-1.093 2.77 2.77 0 0 0 .05-.087l.014-.028.005-.01.002-.004.001-.001s0-.002-.67-.337l.67.335a.75.75 0 0 0-1.339-.675l-.002.005-.023.04c-.023.039-.06.099-.113.174-.107.15-.273.356-.504.56-.454.405-1.159.811-2.19.811s-1.734-.406-2.188-.81a3.348 3.348 0 0 1-.617-.735 1.305 1.305 0 0 1-.023-.04zM7.668 9.159a.75.75 0 0 0-1.339.676L7 9.5l-.67.335v.002h.001l.002.003.003.007.009.017a1.974 1.974 0 0 0 .126.208c.082.124.207.29.375.458.331.332.886.72 1.655.72s1.324-.388 1.655-.72a3.029 3.029 0 0 0 .5-.666l.01-.017.003-.007.002-.002v-.001s0-.002-.67-.337l.67.335a.75.75 0 0 0-1.338-.676l-.007.012a1.53 1.53 0 0 1-.23.299c-.169.168-.364.28-.595.28s-.426-.112-.595-.28a1.53 1.53 0 0 1-.23-.3zM14.668 9.159a.75.75 0 0 0-1.339.676L14 9.5l-.67.335v.002h.001l.002.003.003.007.009.017a2.232 2.232 0 0 0 .126.208c.083.124.207.29.375.458.331.332.886.72 1.655.72s1.324-.388 1.655-.72a3.029 3.029 0 0 0 .5-.666l.01-.017.003-.007.002-.002v-.001s0-.002-.67-.337l.67.335a.75.75 0 0 0-1.338-.676l-.007.012a1.524 1.524 0 0 1-.23.299c-.169.168-.364.28-.595.28-.231 0-.427-.112-.595-.28a1.531 1.531 0 0 1-.23-.3z" fill="#ffffff" opacity="1" data-original="#ffffff"></path></g></g></svg>