<svg xmlns="http://www.w3.org/2000/svg" version="1.1" xmlns:xlink="http://www.w3.org/1999/xlink" width="512" height="512" x="0" y="0" viewBox="0 0 64 64" style="enable-background:new 0 0 512 512" xml:space="preserve" class=""><g><g data-name="Layer 32"><path d="M43 1a19.9 19.9 0 0 0-4.85.62A22.108 22.108 0 0 0 32.965 1H27.64A21.665 21.665 0 0 0 6 22.64a6.794 6.794 0 0 0 .714 3.024 2.71 2.71 0 0 1-.17 2.716L1.533 35.9a3.172 3.172 0 0 0 1.22 4.6L5 41.618V45a1 1 0 0 0 .553.9l.314.157a2.62 2.62 0 0 0 .58 4.29.994.994 0 0 1 .553.889v2.124a4.641 4.641 0 0 0 5.55 4.55l4.013-.8a5.587 5.587 0 0 1 5.573 2.2l3.05 4.27 1.628-1.162-3.051-4.271a7.6 7.6 0 0 0-7.592-3l-4.015.8a2.61 2.61 0 0 1-.516.053A2.643 2.643 0 0 1 9 53.36v-2.124a2.982 2.982 0 0 0-1.659-2.683.618.618 0 0 1 0-1.106l1.1-.552a1 1 0 0 0 0-1.79L7 44.382V41a1 1 0 0 0-.553-.9l-2.8-1.4a1.173 1.173 0 0 1-.45-1.7l5.011-7.51a4.708 4.708 0 0 0 .292-4.721A4.794 4.794 0 0 1 8 22.64 19.663 19.663 0 0 1 27.64 3h5.325c.43 0 .86.015 1.288.042a19.967 19.967 0 0 0 12.3 37.624l-.383.767a11.043 11.043 0 0 0-.6 8.429l4.485 13.454 1.9-.632-4.491-13.455a9.037 9.037 0 0 1 .491-6.9l1.145-2.287A20 20 0 0 0 43 1Zm0 38a18 18 0 1 1 18-18 18.021 18.021 0 0 1-18 18Z" fill="#ffffff" opacity="1" data-original="#ffffff" class=""></path><path d="M44 7.051V5h-2v2.051A14 14 0 0 0 29.051 20H27v2h2.051A14 14 0 0 0 42 34.949V37h2v-2.051A14 14 0 0 0 56.949 22H59v-2h-2.051A14 14 0 0 0 44 7.051ZM54.949 20h-4.018A8.008 8.008 0 0 0 44 13.069V9.051A12.006 12.006 0 0 1 54.949 20Zm-6.039 2A6.008 6.008 0 0 1 44 26.91V25h-2v1.91A6.008 6.008 0 0 1 37.09 22H39v-2h-1.91A6.008 6.008 0 0 1 42 15.09V17h2v-1.91A6.008 6.008 0 0 1 48.91 20H47v2ZM42 9.051v4.018A8.008 8.008 0 0 0 35.069 20h-4.018A12.006 12.006 0 0 1 42 9.051ZM31.051 22h4.018A8.008 8.008 0 0 0 42 28.931v4.018A12.006 12.006 0 0 1 31.051 22ZM44 32.949v-4.018A8.008 8.008 0 0 0 50.931 22h4.018A12.006 12.006 0 0 1 44 32.949Z" fill="#ffffff" opacity="1" data-original="#ffffff" class=""></path></g></g></svg>